<svg width="28" height="27" viewBox="0 0 28 27" fill="none" xmlns="http://www.w3.org/2000/svg">
    <path d="M11.6667 18.9146C11.1834 18.9146 10.7917 19.3064 10.7917 19.7896C10.7917 20.2729 11.1834 20.6646 11.6667 20.6646H16.3333C16.8166 20.6646 17.2083 20.2729 17.2083 19.7896C17.2083 19.3064 16.8166 18.9146 16.3333 18.9146H11.6667Z" fill="#737373"/>
    <path fill-rule="evenodd" clip-rule="evenodd" d="M14.2459 0.462883C14.082 0.456871 13.918 0.456871 13.7541 0.462883C12.6721 0.502574 11.6979 0.870481 10.6297 1.48291C9.5887 2.07973 8.39025 2.95046 6.86964 4.05526L6.78698 4.11532C5.26635 5.22011 4.06788 6.09084 3.17859 6.89645C2.26604 7.72312 1.61508 8.536 1.24299 9.55272C1.18663 9.70674 1.13593 9.86277 1.091 10.0205C0.79441 11.0618 0.84325 12.102 1.09561 13.3072C1.34154 14.4817 1.79932 15.8905 2.38016 17.6781L2.41173 17.7753C2.99254 19.5629 3.45031 20.9718 3.94167 22.0665C4.4459 23.1898 5.01783 24.0601 5.86981 24.7282C5.99887 24.8294 6.1316 24.9258 6.26773 25.0173C7.16637 25.6211 8.1708 25.8961 9.39498 26.0285C10.588 26.1576 12.0693 26.1576 13.9489 26.1575H14.0511C15.9307 26.1576 17.4121 26.1576 18.605 26.0285C19.8292 25.8961 20.8336 25.6211 21.7323 25.0173C21.8684 24.9258 22.0011 24.8294 22.1302 24.7282C22.9822 24.0601 23.5541 23.1898 24.0583 22.0665C24.5497 20.9717 25.0075 19.5629 25.5883 17.7752L25.6199 17.6781C26.2007 15.8906 26.6585 14.4816 26.9044 13.3072C27.1568 12.102 27.2056 11.0618 26.909 10.0205C26.8641 9.86277 26.8134 9.70674 26.757 9.55272C26.3849 8.536 25.734 7.72312 24.8214 6.89645C23.9321 6.09083 22.7337 5.22011 21.213 4.11531L21.1303 4.05524C19.6097 2.95045 18.4113 2.07973 17.3703 1.48291C16.3021 0.870481 15.3279 0.502574 14.2459 0.462883ZM13.8182 2.21171C13.9394 2.20726 14.0606 2.20726 14.1818 2.21171C14.8765 2.23719 15.5683 2.46699 16.4999 3.0011C17.4493 3.54541 18.5721 4.35966 20.1431 5.50108C21.7141 6.6425 22.8355 7.45867 23.6465 8.1934C24.4424 8.91435 24.8747 9.50135 25.1136 10.1542C25.1553 10.268 25.1927 10.3833 25.226 10.4999C25.4164 11.1685 25.4116 11.8975 25.1916 12.9485C24.9673 14.0197 24.5398 15.3391 23.9397 17.1859C23.3396 19.0328 22.9099 20.3514 22.4618 21.3499C22.0221 22.3295 21.5974 22.9221 21.0504 23.3511C20.955 23.4258 20.8569 23.4971 20.7563 23.5647C20.1793 23.9524 19.4845 24.1732 18.4168 24.2887C17.3288 24.4064 15.9419 24.4075 14 24.4075C12.0581 24.4075 10.6712 24.4064 9.58317 24.2887C8.51556 24.1732 7.82074 23.9524 7.24376 23.5647C7.14314 23.4971 7.04504 23.4258 6.94965 23.3511C6.40262 22.9221 5.97795 22.3295 5.53822 21.3498C5.09008 20.3514 4.66037 19.0328 4.06029 17.1859C3.46021 15.3391 3.03276 14.0197 2.80846 12.9485C2.58838 11.8975 2.58363 11.1685 2.77406 10.4999C2.80726 10.3833 2.84474 10.268 2.8864 10.1542C3.1253 9.50135 3.55766 8.91435 4.3535 8.1934C5.16455 7.45867 6.2859 6.6425 7.85692 5.50108C9.42795 4.35966 10.5507 3.54541 11.5001 3.0011C12.4317 2.46699 13.1236 2.23719 13.8182 2.21171Z" fill="#737373"/>
</svg>
