<svg width="26" height="25" viewBox="0 0 26 25" fill="none" xmlns="http://www.w3.org/2000/svg">
    <path fill-rule="evenodd" clip-rule="evenodd" d="M6.34261 3.79319C3.23133 6.05367 1.67568 7.18391 1.06469 8.85344C1.01568 8.98736 0.971595 9.12304 0.932526 9.2602C0.445507 10.97 1.03971 12.7988 2.22811 16.4563C3.41652 20.1138 4.01072 21.9426 5.40973 23.0396C5.52195 23.1276 5.63737 23.2115 5.75574 23.291C7.23137 24.2825 9.15425 24.2825 13 24.2825C16.8458 24.2825 18.7686 24.2825 20.2443 23.291C20.3626 23.2115 20.4781 23.1276 20.5903 23.0396C21.9893 21.9426 22.5835 20.1138 23.7719 16.4563C24.9603 12.7988 25.5545 10.97 25.0675 9.2602C25.0284 9.12304 24.9843 8.98736 24.9353 8.85344C24.3243 7.18392 22.7687 6.05368 19.6574 3.7932C16.5461 1.53272 14.9905 0.40247 13.2139 0.337295C13.0713 0.332067 12.9287 0.332067 12.7862 0.337295C11.0095 0.40247 9.45389 1.53271 6.34261 3.79319ZM10.6667 17.9146C10.1834 17.9146 9.79167 18.3064 9.79167 18.7896C9.79167 19.2729 10.1834 19.6646 10.6667 19.6646H15.3333C15.8166 19.6646 16.2083 19.2729 16.2083 18.7896C16.2083 18.3064 15.8166 17.9146 15.3333 17.9146H10.6667Z" fill="#42C83C"/>
</svg>
